<svg xmlns="http://www.w3.org/2000/svg" width="27.79" height="37.027" viewBox="0 0 27.79 37.027"><defs><style>.a{fill:#1cd1ff;stroke:#1cd1ff;}.b{fill:#009098;stroke:#009098;}.c{fill:#3dc3eb;stroke:#3dc3eb;}.d{fill:#00a4a6;stroke:#00a4a6;}.e{fill:#008076;stroke:#008076;}.f{fill:#85caec;stroke:#85caec;}.g{fill:#188fcf;stroke:#188fcf;}.h{fill:#53c6e9;stroke:#53c6e9;}.i{fill:#00615f;stroke:#00615f;}.j{fill:#00abaf;stroke:#00abaf;}</style></defs><g transform="translate(0.852 1.007)"><path class="a" d="M2169.459,93.24l8.77-4.827V98.644l-8.77,5.011Z" transform="translate(-2155.62 -76.263)"/><path class="b" d="M2145.685,83.212l8.352,4.942V98.243l-8.352-4.324Z" transform="translate(-2145.209 -73.774)"/><path class="c" d="M2145.685,101.972V112.1l8.353,5.22v-10.44Z" transform="translate(-2145.209 -82.201)"/><path class="d" d="M0,4.8,8.77,9.4,16.913,4.8,8.77,0Z" transform="translate(0.727 4.454) rotate(3)"/><path class="e" d="M.4,9.34,8.991,4.311l-.122,0,0-.087L0,0Z" transform="matrix(-0.996, -0.087, 0.087, -0.996, 8.957, 14.309)"/><path class="f" d="M0,4.785,8.173,9.263,15.78,4.735,8.173,0Z" transform="matrix(0.995, 0.105, -0.105, 0.995, 10.227, 0.042)"/><path class="g" d="M2176.518,75.241l8.77-5.011-8.77-5.22Z" transform="translate(-2162.678 -47.848)"/><path class="h" d="M0,4.833,7.99,0,7.963,8.96l-7.13-3.7Z" transform="translate(10.326 0) rotate(7)"/><path class="i" d="M2145.685,93.355l8.253-5.065-8.253-4.831Z" transform="translate(-2145.209 -73.949)"/><path class="j" d="M2145.685,111.73l8.252-5.05-8.252-4.776Z" transform="translate(-2145.209 -82.171)"/></g></svg>